<svg width="50" height="49" viewBox="0 0 50 49" fill="none" xmlns="http://www.w3.org/2000/svg">
<g filter="url(#filter0_d_119_65)">
<circle cx="25" cy="24.5" r="23" fill="#5A81E5"/>
</g>
<path d="M20.5729 38.8908H30.4687M35.4167 21.1092V23.4801C35.4167 28.696 30.9635 32.9636 25.5208 32.9636M25.5208 32.9636C20.0781 32.9636 15.625 28.696 15.625 23.4801V21.1092M25.5208 32.9636V38.8908" stroke="#FFFDFA" stroke-width="1.5" stroke-linecap="round" stroke-linejoin="round"/>
<path d="M25.521 10.5772C24.9046 10.5742 24.2937 10.6884 23.7235 10.9131C23.1534 11.1378 22.6355 11.4686 22.1996 11.8863C21.7637 12.304 21.4185 12.8004 21.184 13.3468C20.9496 13.8931 20.8304 14.4786 20.8336 15.0694V22.8605C20.8336 25.3311 22.9576 27.4228 25.521 27.4228C28.0845 27.4228 30.2085 25.3873 30.2085 22.8605V15.0694C30.2085 12.5425 28.1577 10.5772 25.521 10.5772Z" stroke="#FFFDFA" stroke-width="1.5" stroke-linecap="round" stroke-linejoin="round"/>
<defs>
<filter id="filter0_d_119_65" x="1.5" y="1" width="48" height="48" filterUnits="userSpaceOnUse" color-interpolation-filters="sRGB">
<feFlood flood-opacity="0" result="BackgroundImageFix"/>
<feColorMatrix in="SourceAlpha" type="matrix" values="0 0 0 0 0 0 0 0 0 0 0 0 0 0 0 0 0 0 127 0" result="hardAlpha"/>
<feOffset dx="0.5" dy="0.5"/>
<feGaussianBlur stdDeviation="0.5"/>
<feComposite in2="hardAlpha" operator="out"/>
<feColorMatrix type="matrix" values="0 0 0 0 0 0 0 0 0 0 0 0 0 0 0 0 0 0 0.25 0"/>
<feBlend mode="normal" in2="BackgroundImageFix" result="effect1_dropShadow_119_65"/>
<feBlend mode="normal" in="SourceGraphic" in2="effect1_dropShadow_119_65" result="shape"/>
</filter>
</defs>
</svg>
