<svg width="20" height="20" viewBox="0 0 20 20" fill="none" xmlns="http://www.w3.org/2000/svg">
<path d="M11.6667 2.49996L12.5 1.66663M3.33333 1.66663L4.16667 2.49996M12.5 4.99996H13.3333M2.5 5.83329H3.33333M6.66667 10.8333V3.74996C6.66667 3.41844 6.79836 3.1005 7.03278 2.86608C7.2672 2.63166 7.58515 2.49996 7.91667 2.49996C8.24819 2.49996 8.56613 2.63166 8.80055 2.86608C9.03497 3.1005 9.16667 3.41844 9.16667 3.74996V7.58746C9.16665 7.79261 9.24231 7.99056 9.37916 8.1434C9.51601 8.29624 9.70443 8.39323 9.90833 8.41579L14.4425 8.91913C15.0542 8.98703 15.6194 9.2782 16.0298 9.73688C16.4402 10.1955 16.6669 10.7895 16.6667 11.405V11.6666C16.6667 13.2137 16.0521 14.6975 14.9581 15.7914C13.8642 16.8854 12.3804 17.5 10.8333 17.5H10.2717C9.18844 17.4998 8.12667 17.198 7.2053 16.6284C6.28393 16.0588 5.53936 15.2439 5.055 14.275L2.5 9.16663C4.16667 8.33329 5 8.74996 6.66667 10.8333Z" stroke="#747474" stroke-width="1.66667" stroke-linecap="round" stroke-linejoin="round"/>
</svg>
